<?xml version="1.0" encoding="UTF-8" standalone="no" ?>
<!DOCTYPE svg PUBLIC "-//W3C//DTD SVG 1.1//EN" "http://www.w3.org/Graphics/SVG/1.1/DTD/svg11.dtd">
<svg xmlns="http://www.w3.org/2000/svg" xmlns:xlink="http://www.w3.org/1999/xlink" version="1.1" width="640" height="480" viewBox="0 0 640 480" xml:space="preserve">
<desc>Created with Fabric.js 3.6.6</desc>
<defs>
</defs>
<g transform="matrix(3.3 0 0 3.3 368.33 58.17)" style=""  >
		<text xml:space="preserve" font-family="'Open Sans', sans-serif" font-size="27" font-style="normal" font-weight="normal" style="stroke: none; stroke-width: 1; stroke-dasharray: none; stroke-linecap: butt; stroke-dashoffset: 0; stroke-linejoin: miter; stroke-miterlimit: 4; fill: rgb(0,0,0); fill-rule: nonzero; opacity: 1; white-space: pre;" ><tspan x="-73.46" y="5.65" style="stroke-width: 1; font-family: 'Open Sans', sans-serif; font-size: 18px; font-style: normal; font-weight: normal; fill: rgb(0,0,0); ">Enlightened Picks</tspan></text>
</g>
<g transform="matrix(1 0 0 1 64.02 66.37)"  >
<g style=""   >
		<g transform="matrix(4.8 0 0 4.8 0 -41.23)"  >
<path style="stroke: none; stroke-width: 1; stroke-dasharray: none; stroke-linecap: butt; stroke-dashoffset: 0; stroke-linejoin: miter; stroke-miterlimit: 4; fill: rgb(34,197,94); fill-rule: nonzero; opacity: 1;"  transform=" translate(-15.89, -7.41)" d="M 14.626 9.94595 C 19.0055 11.4917 23.7285 11.4058 28.0651 9.73128 C 28.108 7.97089 27.6357 6.2105 26.8199 4.62186 L 26.3906 3.76313 C 26.2618 3.80607 26.09 3.89195 26.0041 3.97782 C 22.054 5.86702 17.5886 6.12463 13.4238 4.62187 C 10.5042 3.5914 7.32687 3.84901 4.57895 5.22297 L 3.72023 5.65233 C 3.76316 5.78114 3.84904 5.95288 3.93492 6.03875 C 4.45015 7.1551 4.87951 8.35732 5.18006 9.60247 C 8.1856 8.74374 11.5346 8.82961 14.626 9.94595 Z" stroke-linecap="round" />
</g>
		<g transform="matrix(4.8 0 0 4.8 -28.45 41.33)"  >
<path style="stroke: none; stroke-width: 1; stroke-dasharray: none; stroke-linecap: butt; stroke-dashoffset: 0; stroke-linejoin: miter; stroke-miterlimit: 4; fill: rgb(34,197,94); fill-rule: nonzero; opacity: 1;"  transform=" translate(-9.97, -24.61)" d="M 3.93493 22.8698 L 4.87952 22.3545 C 6.7935 21.3975 8.90498 20.9343 11 20.9954 C 12.2888 21.033 13.5713 21.2689 14.7978 21.7105 C 15.1973 21.8522 15.5981 21.9824 16 22.1011 V 26.6777 C 14.3376 26.3686 12.6547 26.3244 11 26.5375 C 9.28349 26.7584 7.59733 27.2562 5.99586 28.0221 C 5.90999 28.108 5.73824 28.1939 5.60943 28.2368 L 5.18007 27.3781 C 4.45015 25.9612 4.0208 24.4155 3.93493 22.8698 Z" stroke-linecap="round" />
</g>
		<g transform="matrix(4.8 0 0 4.8 0.99 0.42)"  >
<path style="stroke: none; stroke-width: 1; stroke-dasharray: none; stroke-linecap: butt; stroke-dashoffset: 0; stroke-linejoin: miter; stroke-miterlimit: 4; fill: rgb(34,197,94); fill-rule: nonzero; opacity: 1;"  transform=" translate(-15.89, -16.08)" d="M 4.45002 18.9196 C 8.0996 17.4169 12.1786 17.288 15.914 18.6191 C 19.3489 19.8213 22.9985 20.036 26.4334 19.2631 C 26.3905 17.331 26.6481 15.4418 27.3351 13.5526 C 22.8267 14.8836 17.9749 14.7548 13.4666 13.1662 C 10.8905 12.2216 8.05667 12.2216 5.48049 13.0803 C 5.52343 14.9266 5.17995 16.8157 4.5359 18.662 C 4.5359 18.662 4.49296 18.7908 4.45002 18.9196 Z" stroke-linecap="round" />
</g>
</g>
</g>
<g transform="matrix(1 0 0 1 70.5 58)"  >
<path style="stroke: rgb(50,39,127); stroke-width: 1; stroke-dasharray: none; stroke-linecap: round; stroke-dashoffset: 0; stroke-linejoin: round; stroke-miterlimit: 10; fill: none; fill-rule: nonzero; opacity: 1;"  transform=" translate(-70.5, -58)" d="M 70.499 58 L 70.501 58" stroke-linecap="round" />
</g>
<g transform="matrix(1 0 0 1 69.5 58)"  >
<path style="stroke: rgb(50,39,127); stroke-width: 1; stroke-dasharray: none; stroke-linecap: round; stroke-dashoffset: 0; stroke-linejoin: round; stroke-miterlimit: 10; fill: none; fill-rule: nonzero; opacity: 1;"  transform=" translate(-69.5, -58)" d="M 69.499 58 L 69.501 58" stroke-linecap="round" />
</g>
<g transform="matrix(1 0 0 1 35.5 102)"  >
<path style="stroke: rgb(50,39,127); stroke-width: 1; stroke-dasharray: none; stroke-linecap: round; stroke-dashoffset: 0; stroke-linejoin: round; stroke-miterlimit: 10; fill: none; fill-rule: nonzero; opacity: 1;"  transform=" translate(-35.5, -102)" d="M 35.5 100.999 Q 35.5 101 35.5 101.5 Q 35.5 102 35.5 102.5 L 35.5 103.001" stroke-linecap="round" />
</g>
<g transform="matrix(1 0 0 1 29.5 102)"  >
<path style="stroke: rgb(61,56,97); stroke-width: 1; stroke-dasharray: none; stroke-linecap: round; stroke-dashoffset: 0; stroke-linejoin: round; stroke-miterlimit: 10; fill: none; fill-rule: nonzero; opacity: 1;"  transform=" translate(-29.5, -102)" d="M 29.499 102 L 29.501 102" stroke-linecap="round" />
</g>
<g transform="matrix(1 0 0 1 78.5 219)"  >
<path style="stroke: rgb(61,56,97); stroke-width: 1; stroke-dasharray: none; stroke-linecap: round; stroke-dashoffset: 0; stroke-linejoin: round; stroke-miterlimit: 10; fill: none; fill-rule: nonzero; opacity: 1;"  transform=" translate(-78.5, -219)" d="M 78.499 219 L 78.501 219" stroke-linecap="round" />
</g>
<g transform="matrix(1 0 0 1 272.5 65)"  >
<path style="stroke: rgb(61,56,97); stroke-width: 1; stroke-dasharray: none; stroke-linecap: round; stroke-dashoffset: 0; stroke-linejoin: round; stroke-miterlimit: 10; fill: none; fill-rule: nonzero; opacity: 1;"  transform=" translate(-272.5, -65)" d="M 272.499 65 L 272.501 65" stroke-linecap="round" />
</g>
</svg>